<svg id="Calque_1" data-name="Calque 1" xmlns="http://www.w3.org/2000/svg" xmlns:xlink="http://www.w3.org/1999/xlink" viewBox="0 0 3198.39 3353"><defs><style>.cls-1{fill:url(#linear-gradient);}.cls-2{fill:url(#linear-gradient-2);}.cls-3{fill:url(#linear-gradient-3);}.cls-4{fill:url(#linear-gradient-4);}.cls-5{fill:url(#linear-gradient-5);}.cls-6{fill:url(#linear-gradient-6);}.cls-7{fill:url(#linear-gradient-7);}</style><linearGradient id="linear-gradient" x1="6054.72" y1="4871.67" x2="6691.87" y2="4355.72" gradientTransform="translate(6817.78 7599.16) rotate(-179.66)" gradientUnits="userSpaceOnUse"><stop offset="0" stop-color="#1d1d1b"/><stop offset="0.38" stop-color="#1d1e1d"/><stop offset="0.51" stop-color="#1f2324"/><stop offset="0.61" stop-color="#212c2f"/><stop offset="0.69" stop-color="#243840"/><stop offset="0.75" stop-color="#294756"/><stop offset="0.81" stop-color="#2e5a72"/><stop offset="0.87" stop-color="#347192"/><stop offset="0.91" stop-color="#3b8bb6"/><stop offset="0.96" stop-color="#43a8df"/></linearGradient><linearGradient id="linear-gradient-2" x1="2422.4" y1="1386.16" x2="3059.53" y2="870.22" gradientTransform="matrix(1, 0, 0, 1, 0, 0)" xlink:href="#linear-gradient"/><linearGradient id="linear-gradient-3" x1="2774.74" y1="712.31" x2="3135.45" y2="420.21" gradientTransform="matrix(1, 0, 0, 1, 0, 0)" xlink:href="#linear-gradient"/><linearGradient id="linear-gradient-4" x1="3247.84" y1="851.14" x2="3526.14" y2="625.78" gradientTransform="matrix(1, 0, 0, 1, 0, 0)" xlink:href="#linear-gradient"/><linearGradient id="linear-gradient-5" x1="3397.13" y1="1558.01" x2="3690.46" y2="1352.62" gradientTransform="matrix(1, 0, 0, 1, 0, 0)" xlink:href="#linear-gradient"/><linearGradient id="linear-gradient-6" x1="564.3" y1="3846.07" x2="842.54" y2="3620.76" gradientTransform="matrix(1, 0, 0, 1, 0, 0)" xlink:href="#linear-gradient"/><linearGradient id="linear-gradient-7" x1="1128.76" y1="3426.44" x2="3166.91" y2="1775.98" gradientUnits="userSpaceOnUse"><stop offset="0" stop-color="#1d1d1b"/><stop offset="0.18" stop-color="#1e1f1e"/><stop offset="0.3" stop-color="#1f2527"/><stop offset="0.4" stop-color="#223036"/><stop offset="0.5" stop-color="#26404c"/><stop offset="0.59" stop-color="#2c5468"/><stop offset="0.67" stop-color="#336c8b"/><stop offset="0.75" stop-color="#3a89b3"/><stop offset="0.82" stop-color="#43a8df"/></linearGradient></defs><title>Logo_déclinaison</title><polygon class="cls-1" points="749.43 2641.18 824.13 2730.96 194.9 3253.27 120.2 3163.49 749.43 2641.18"/><polygon class="cls-2" points="2465.43 1435.91 2390.31 1346.53 3016.56 820.41 3091.57 909.8 2465.43 1435.91"/><polygon class="cls-3" points="3103.66 951.63 2989.79 977.87 2806.61 180.84 2920.36 154.6 3103.66 951.63"/><path class="cls-4" d="M3563.31,707.55a179,179,0,0,0-207.16-145.39c-97.42,17.06-162.62,110-145.48,207.08,16.95,97.42,109.63,162.51,207.16,145.48C3515.17,897.76,3580.37,805,3563.31,707.55Z" transform="translate(-524.45 -559.45)"/><path class="cls-5" d="M3720.16,1424.41c-17-97.23-109.93-162.43-207.25-145.39s-162.43,109.84-145.48,207c17,97.53,109.72,162.73,207.06,145.58A178.94,178.94,0,0,0,3720.16,1424.41Z" transform="translate(-524.45 -559.45)"/><path class="cls-6" d="M879.7,3702.58c-16.95-97.34-109.63-162.32-207.16-145.37s-162.43,109.72-145.37,207.06a178.95,178.95,0,1,0,352.54-61.68Z" transform="translate(-524.45 -559.45)"/><path class="cls-7" d="M2147.9,1290c-724.41,0-1311.28,587.08-1311.28,1311.17,0,724.29,586.87,1311.28,1311.28,1311.28,724.18,0,1311.18-587,1311.18-1311.28C3459.08,1877.05,2872.08,1290,2147.9,1290Zm0,2244.29c-515.68,0-933.33-417.75-933.33-933.12s417.64-933.23,933.33-933.23c515.26,0,932.91,417.84,932.91,933.23S2663.16,3534.27,2147.9,3534.27Z" transform="translate(-524.45 -559.45)"/></svg>